<svg xmlns="http://www.w3.org/2000/svg" viewBox="0 0 760 680">
  <defs>
    <g id="umbrella" stroke-linecap="round" stroke-linejoin="round">
      <path d="M24 72C29 39 54 20 90 20s61 19 66 52c-15-11-30-11-44-1-14-12-30-12-44 0-14-10-29-10-44 1Z" fill="#103452" opacity=".045"/>
      <path d="M24 72c15-11 30-11 44-1 5-28 12-45 22-51-36 0-61 19-66 52Z" fill="#155a91" opacity=".105"/>
      <path d="M68 71c14-12 30-12 44 0-4-28-12-45-22-51-10 6-17 23-22 51Z" fill="#16875f" opacity=".1"/>
      <path d="M112 71c14-10 29-10 44 1-4-22-14-38-32-47-6 9-10 24-12 46Z" fill="#ee7c37" opacity=".105"/>
      <path d="M24 72C29 39 54 20 90 20s61 19 66 52c-15-11-30-11-44-1-14-12-30-12-44 0-14-10-29-10-44 1Z" fill="none" stroke="#103452" stroke-width="3" opacity=".11"/>
      <path d="M68 71c5-28 12-45 22-51 10 6 18 23 22 51" fill="none" stroke="#16875f" stroke-width="2.5" opacity=".11"/>
      <path d="M90 21v86c0 21 26 21 26 1" fill="none" stroke="#103452" stroke-width="3" opacity=".105"/>
    </g>
  </defs>
  <use href="#umbrella" x="-20" y="12" transform="scale(1.06)"/>
  <use href="#umbrella" x="380" y="8" transform="scale(.76)"/>
  <use href="#umbrella" x="600" y="190" transform="scale(1.04)"/>
  <use href="#umbrella" x="112" y="300" transform="scale(.84)"/>
  <use href="#umbrella" x="410" y="470" transform="scale(.94)"/>
</svg>
